<svg width="16" height="16" viewBox="0 0 16 16" fill="none" xmlns="http://www.w3.org/2000/svg">
<g clip-path="url(#clip0_3_52)">
<path d="M15.2 1.06667H13.3333V0.266667C13.3333 0.1192 13.2141 0 13.0667 0H11.2C11.0525 0 10.9333 0.1192 10.9333 0.266667V1.06667H5.06666V0.266667C5.06666 0.1192 4.94746 0 4.79999 0H2.93333C2.78586 0 2.66666 0.1192 2.66666 0.266667V1.06667H0.799992C0.652525 1.06667 0.533325 1.18587 0.533325 1.33333V4.26667V15.7333C0.533325 15.8808 0.652525 16 0.799992 16H15.2C15.3475 16 15.4667 15.8808 15.4667 15.7333V4.26667V1.33333C15.4667 1.18587 15.3475 1.06667 15.2 1.06667ZM11.4667 0.533333H12.8V1.33333V2.13333H11.4667V1.33333V0.533333ZM3.19999 0.533333H4.53333V1.33333V2.13333H3.19999V1.33333V0.533333ZM1.06666 1.6H2.66666V2.4C2.66666 2.54747 2.78586 2.66667 2.93333 2.66667H4.79999C4.94746 2.66667 5.06666 2.54747 5.06666 2.4V1.6H10.9333V2.4C10.9333 2.54747 11.0525 2.66667 11.2 2.66667H13.0667C13.2141 2.66667 13.3333 2.54747 13.3333 2.4V1.6H14.9333V4H1.06666V1.6ZM1.06666 15.4667V4.53333H14.9333V15.4667H1.06666Z" fill="black"/>
<path d="M10.1333 6.13333H8.26668H7.73335H5.86668H5.33335H2.93335V8.53333V9.06666V10.9333V11.4667V13.8667H5.33335H5.86668H7.73335H8.26668H10.1333H10.6667H13.0667V11.4667V10.9333V9.06666V8.53333V6.13333H10.6667H10.1333ZM8.26668 6.66666H10.1333V8.53333H8.26668V6.66666ZM10.1333 10.9333H8.26668V9.06666H10.1333V10.9333ZM5.86668 9.06666H7.73335V10.9333H5.86668V9.06666ZM5.86668 6.66666H7.73335V8.53333H5.86668V6.66666ZM3.46668 6.66666H5.33335V8.53333H3.46668V6.66666ZM3.46668 9.06666H5.33335V10.9333H3.46668V9.06666ZM5.33335 13.3333H3.46668V11.4667H5.33335V13.3333ZM7.73335 13.3333H5.86668V11.4667H7.73335V13.3333ZM10.1333 13.3333H8.26668V11.4667H10.1333V13.3333ZM12.5333 13.3333H10.6667V11.4667H12.5333V13.3333ZM12.5333 10.9333H10.6667V9.06666H12.5333V10.9333ZM12.5333 6.66666V8.53333H10.6667V6.66666H12.5333Z" fill="black"/>
</g>
<defs>
<clipPath id="clip0_3_52">
<rect width="16" height="16" fill="white"/>
</clipPath>
</defs>
</svg>
