<svg width="94" height="52" viewBox="0 0 94 52" fill="none" xmlns="http://www.w3.org/2000/svg">
<g clip-path="url(#clip0_1_6)">
<circle cx="68" cy="26" r="26" fill="white"/>
<g clip-path="url(#clip1_1_6)">
<path fill-rule="evenodd" clip-rule="evenodd" d="M61.1926 10C61.8976 10 62.469 10.5538 62.469 11.237V11.6386C62.5522 11.618 62.6357 11.5982 62.7195 11.5792C66.1928 10.7896 69.8072 10.7896 73.2804 11.5792C73.3643 11.5982 73.4477 11.618 73.5309 11.6386V11.237C73.5309 10.5538 74.1024 10 74.8073 10C75.5123 10 76.0838 10.5538 76.0838 11.237V12.5405C79.7227 14.2441 82.4425 17.4652 83.389 21.3759C84.2037 24.7421 84.2037 28.245 83.389 31.6111C82.2125 36.472 78.2961 40.2676 73.2804 41.4079C69.8072 42.1974 66.1928 42.1974 62.7195 41.4079C57.7038 40.2676 53.7875 36.4722 52.611 31.6111C51.7963 28.245 51.7963 24.7421 52.611 21.3759C53.5575 17.4652 56.2773 14.2441 59.9163 12.5405V11.237C59.9163 10.5538 60.4877 10 61.1926 10ZM66.1692 22.2452C66.5681 21.8588 66.5681 21.2322 66.1692 20.8457C65.7705 20.4592 65.1239 20.4592 64.7253 20.8457L62.0436 23.4446L61.0638 22.4951C60.665 22.1086 60.0184 22.1086 59.6197 22.4951C59.2209 22.8814 59.2209 23.5081 59.6197 23.8946L61.3215 25.544C61.7203 25.9303 62.3668 25.9303 62.7656 25.544L66.1692 22.2452ZM69.7018 23.0299C69.1379 23.0299 68.6807 23.4729 68.6807 24.0196C68.6807 24.5661 69.1379 25.0091 69.7018 25.0091H75.6584C76.2223 25.0091 76.6793 24.5661 76.6793 24.0196C76.6793 23.4729 76.2223 23.0299 75.6584 23.0299H69.7018ZM66.1692 30.4919C66.5681 30.1054 66.5681 29.479 66.1692 29.0925C65.7705 28.706 65.1239 28.706 64.7253 29.0925L62.0436 31.6914L61.0638 30.7419C60.665 30.3554 60.0184 30.3554 59.6197 30.7419C59.2209 31.1282 59.2209 31.7549 59.6197 32.1414L61.3215 33.7906C61.7203 34.1771 62.3668 34.1771 62.7656 33.7906L66.1692 30.4919ZM69.7018 31.2767C69.1379 31.2767 68.6807 31.7197 68.6807 32.2663C68.6807 32.8128 69.1379 33.2559 69.7018 33.2559H75.6584C76.2223 33.2559 76.6793 32.8128 76.6793 32.2663C76.6793 31.7197 76.2223 31.2767 75.6584 31.2767H69.7018Z" fill="#245171"/>
</g>
</g>
<g clip-path="url(#clip2_1_6)">
<circle cx="26" cy="26" r="26" fill="white"/>
<g clip-path="url(#clip3_1_6)">
<path d="M39 13H13V39H39V13Z" fill="#F1DC50"/>
<path d="M26 24.9167C26 30.0616 26 32.9505 26 33.5833C26 34.5325 25.4336 35.75 23.8333 35.75C21.2492 35.75 21.125 33.5833 21.125 33.5833M35.5225 27.6424C34.8724 26.5475 34.0106 26 32.9372 26C31.261 26 30.3333 27.0833 30.3333 28.1667C30.3333 29.25 30.875 30.3333 33.0508 30.875C34.4353 31.2197 35.75 31.9583 35.75 33.5833C35.75 35.2083 34.3249 35.75 33.0417 35.75C31.4017 35.75 30.3183 35.0278 29.7917 33.5833" stroke="white" stroke-width="2"/>
</g>
</g>
<defs>
<clipPath id="clip0_1_6">
<rect width="52" height="52" fill="white" transform="translate(42)"/>
</clipPath>
<clipPath id="clip1_1_6">
<rect width="32" height="32" fill="white" transform="translate(52 10)"/>
</clipPath>
<clipPath id="clip2_1_6">
<rect width="52" height="52" fill="white"/>
</clipPath>
<clipPath id="clip3_1_6">
<rect width="26" height="26" fill="white" transform="translate(13 13)"/>
</clipPath>
</defs>
</svg>
