<svg width="32" height="32" viewBox="0 0 32 32" fill="none" xmlns="http://www.w3.org/2000/svg">
<path d="M19.325 16.0107L26.65 8.68929C27.5697 7.76965 27.5697 6.28572 26.65 5.36608C25.7304 4.44644 24.2465 4.44644 23.3268 5.36608L16.0018 12.6875L8.6786 5.36429C7.75895 4.44465 6.27502 4.44465 5.35538 5.36429C4.43574 6.28394 4.43574 7.76786 5.35538 8.68751L12.6804 16.0089L5.35538 23.3304C4.43574 24.25 4.43574 25.7339 5.35538 26.6536C6.27681 27.5732 7.7661 27.5732 8.6786 26.6536L16.0036 19.3321L23.3286 26.6536C24.2482 27.5732 25.7322 27.5732 26.6518 26.6536C27.5643 25.7339 27.5643 24.25 26.6429 23.3286L19.325 16.0107Z" fill="#FF0000"/>
</svg>
